<svg xmlns="http://www.w3.org/2000/svg" viewBox="0 0 827 518">
<polygon points="719,378 713,384 712,384 705,391 704,391 698,397 698,498 700,500 701,500 711,510 712,510 718,516 773,516 779,510 780,510 790,500 791,500 792,499 792,451 790,449 789,449 775,435 730,435 728,433 728,406 729,405 730,405 731,404 761,404 763,406 763,416 792,416 792,397 788,393 787,393 773,379 772,379 771,378" fill="none" stroke="black" stroke-width="1"/>
<polygon points="504,378 504,379 503,380 503,476 504,477 503,478 504,479 503,480 503,481 504,482 504,483 503,484 504,485 503,486 503,487 504,488 503,489 504,490 504,493 503,494 504,495 504,496 503,497 504,498 504,499 503,500 504,501 504,503 503,504 504,505 503,506 503,508 504,509 503,510 503,512 504,513 504,515 503,516 532,516 532,468 533,467 550,467 552,469 552,470 553,471 553,473 554,474 554,475 555,476 555,478 556,479 556,480 557,481 557,482 558,483 558,485 559,486 559,487 560,488 560,490 561,491 561,492 562,493 562,495 563,496 563,497 564,498 564,500 565,501 565,502 566,503 566,505 567,506 567,507 568,508 568,509 569,510 569,512 570,513 570,514 571,515 571,516 600,516 600,515 599,514 599,512 598,511 598,510 597,509 597,507 596,506 596,505 595,504 595,502 594,501 594,500 593,499 593,497 592,496 592,495 591,494 591,492 590,491 590,490 589,489 589,487 588,486 588,485 587,484 587,482 586,481 586,480 585,479 585,477 584,476 584,475 583,474 583,472 582,471 582,470 581,469 581,468 580,467 588,459 589,459 597,451 597,397 590,390 589,390 578,379 577,379 576,378" fill="none" stroke="black" stroke-width="1"/>
<polygon points="385,378 385,516 480,516 480,491 415,491 414,490 414,461 415,460 467,460 467,434 415,434 414,433 414,405 415,404 480,404 480,379 478,379 477,378" fill="none" stroke="black" stroke-width="1"/>
<polygon points="257,378 256,379 257,380 257,383 258,384 258,387 259,388 259,390 260,391 260,394 261,395 261,397 262,398 262,401 263,402 263,405 264,406 264,409 265,410 265,413 266,414 266,416 267,417 267,420 268,421 268,423 269,424 269,427 270,428 270,431 271,432 271,434 272,435 272,438 273,439 273,442 274,443 274,445 275,446 275,449 276,450 276,452 277,453 277,456 278,457 278,460 279,461 279,463 280,464 280,467 281,468 281,470 282,471 282,474 283,475 283,478 284,479 284,481 285,482 285,485 286,486 286,488 287,489 287,492 288,493 288,496 289,497 289,499 290,500 290,503 291,504 291,507 292,508 292,510 293,511 293,514 294,515 294,516 329,516 330,515 330,514 331,513 331,510 332,509 332,507 333,506 333,503 334,502 334,499 335,498 335,496 336,495 336,492 337,491 337,488 338,487 338,484 339,483 339,481 340,480 340,477 341,476 341,473 342,472 342,470 343,469 343,466 344,465 344,462 345,461 345,459 346,458 346,455 347,454 347,451 348,450 348,447 349,446 349,444 350,443 350,440 351,439 351,437 352,436 352,433 353,432 353,429 354,428 354,426 355,425 355,422 356,421 356,418 357,417 357,415 358,414 358,411 359,410 359,408 360,407 360,404 361,403 361,401 362,400 362,397 363,396 363,393 364,392 364,390 365,389 365,386 366,385 366,383 367,382 367,379 366,379 365,378 339,378 339,379 338,380 338,382 337,383 337,386 336,387 336,390 335,391 335,394 334,395 334,398 333,399 333,402 332,403 332,405 331,406 331,409 330,410 330,413 329,414 329,417 328,418 328,421 327,422 327,425 326,426 326,429 325,430 325,433 324,434 324,437 323,438 323,441 322,442 322,445 321,446 321,449 320,450 320,453 319,454 319,457 318,458 318,461 317,462 317,465 316,466 316,469 315,470 315,473 314,474 314,477 313,478 313,479 312,480 311,479 311,477 310,476 310,473 309,472 309,470 308,469 308,466 307,465 307,461 306,460 306,457 305,456 305,453 304,452 304,449 303,448 303,445 302,444 302,440 301,439 301,437 300,436 300,433 299,432 299,428 298,427 298,425 297,424 297,420 296,419 296,416 295,415 295,412 294,411 294,408 293,407 293,404 292,403 292,400 291,399 291,396 290,395 290,392 289,391 289,388 288,387 288,384 287,383 287,380 286,379 285,379 284,378" fill="none" stroke="black" stroke-width="1"/>
<polygon points="171,378 170,379 168,379 159,388 158,388 151,395 151,396 150,397 150,413 151,414 151,420 150,421 151,422 151,428 150,429 151,430 151,451 150,452 150,453 151,454 151,475 150,476 150,477 151,478 151,498 169,516 170,516 171,517 172,516 189,516 190,517 191,516 227,516 240,503 241,503 245,499 245,397 232,384 231,384 226,379 225,379 224,378" fill="none" stroke="black" stroke-width="1"/>
<polygon points="54,378 45,387 44,387 35,396 35,449 36,450 36,452 35,453 36,454 36,498 54,516 112,516 115,513 116,513 128,501 129,501 130,500 130,469 102,469 102,489 100,491 67,491 65,489 65,453 64,452 65,451 64,450 64,407 67,404 99,404 100,405 101,405 102,406 102,426 103,427 104,426 130,426 130,394 129,394 120,385 119,385 112,378" fill="none" stroke="black" stroke-width="1"/>
<polygon points="716,184 715,185 712,185 711,186 707,186 706,187 701,187 700,188 695,188 694,189 689,189 688,190 683,190 682,191 678,191 677,192 672,192 671,193 665,193 664,194 660,194 659,195 654,195 653,196 649,196 648,197 642,197 641,198 637,198 636,199 632,199 631,200 627,200 626,201 621,201 620,202 615,202 614,203 612,203 611,204 611,206 610,207 610,210 609,211 609,213 608,214 608,216 607,217 607,219 606,220 606,222 605,223 605,225 604,226 604,227 603,228 603,230 602,231 602,233 601,234 601,235 600,236 600,237 599,238 599,239 598,240 601,240 602,239 607,239 608,238 613,238 614,237 619,237 620,236 624,236 625,235 630,235 631,234 635,234 636,233 640,233 641,232 645,232 646,231 651,231 652,230 656,230 657,229 661,229 662,228 666,228 667,227 671,227 672,226 675,226 676,225 679,225 680,224 682,224 683,223 685,223 686,222 687,222 688,221 689,221 690,220 691,220 693,218 694,218 695,217 696,217 698,215 699,215 703,211 704,211 707,208 707,207 711,203 711,202 713,200 713,199 714,198 714,197 715,196 715,195 717,193 717,191 718,190 718,189 719,188 719,187 720,186 720,184" fill="none" stroke="black" stroke-width="1"/>
<polygon points="106,184 107,185 107,187 108,188 108,189 109,190 109,192 110,193 110,194 111,195 111,196 112,197 112,198 114,200 114,201 117,204 117,205 128,216 129,216 131,218 132,218 133,219 134,219 136,221 137,221 138,222 140,222 141,223 143,223 144,224 147,224 148,225 151,225 152,226 156,226 157,227 160,227 161,228 165,228 166,229 170,229 171,230 176,230 177,231 181,231 182,232 186,232 187,233 191,233 192,234 197,234 198,235 202,235 203,236 207,236 208,237 212,237 213,238 218,238 219,239 223,239 224,240 228,240 228,239 227,238 227,236 226,235 226,234 225,233 225,231 224,230 224,228 223,227 223,226 222,225 222,223 221,222 221,220 220,219 220,217 219,216 219,214 218,213 218,211 217,210 217,207 216,206 216,204 215,203 214,203 213,202 207,202 206,201 201,201 200,200 195,200 194,199 190,199 189,198 184,198 183,197 178,197 177,196 172,196 171,195 167,195 166,194 161,194 160,193 156,193 155,192 150,192 149,191 144,191 143,190 138,190 137,189 132,189 131,188 127,188 126,187 121,187 120,186 116,186 115,185 111,185 110,184" fill="none" stroke="black" stroke-width="1"/>
<polygon points="782,114 781,115 777,115 776,116 773,116 772,117 768,117 767,118 763,118 762,119 758,119 757,120 753,120 752,121 748,121 747,122 743,122 742,123 739,123 738,124 734,124 733,125 730,125 729,126 725,126 724,127 721,127 720,128 716,128 715,129 712,129 711,130 707,130 706,131 702,131 701,132 698,132 697,133 693,133 692,134 688,134 687,135 684,135 683,136 679,136 678,137 674,137 673,138 670,138 669,139 665,139 664,140 660,140 659,141 655,141 654,142 649,142 648,143 645,143 644,144 640,144 639,145 635,145 634,146 630,146 629,147 625,147 624,148 624,149 623,150 623,155 622,156 622,160 621,161 621,165 620,166 620,170 619,171 619,175 618,176 618,180 617,181 617,184 616,185 619,185 620,184 624,184 625,183 630,183 631,182 636,182 637,181 641,181 642,180 647,180 648,179 652,179 653,178 658,178 659,177 664,177 665,176 669,176 670,175 675,175 676,174 681,174 682,173 687,173 688,172 693,172 694,171 699,171 700,170 705,170 706,169 710,169 711,168 716,168 717,167 721,167 722,166 725,166 726,165 728,165 729,164 733,164 734,163 737,163 738,162 741,162 742,161 743,161 744,160 746,160 747,159 748,159 749,158 750,158 751,157 752,157 754,155 755,155 757,153 758,153 761,150 762,150 768,144 768,143 771,140 771,139 773,137 773,136 775,134 775,133 776,132 776,130 777,129 777,128 778,127 778,126 779,125 779,123 780,122 780,121 781,120 781,118 782,117" fill="none" stroke="black" stroke-width="1"/>
<polygon points="44,114 44,117 45,118 45,120 46,121 46,122 47,123 47,125 48,126 48,127 49,128 49,129 50,130 50,131 51,132 51,133 52,134 52,135 53,136 53,137 54,138 54,139 56,141 56,142 66,152 67,152 69,154 70,154 72,156 73,156 74,157 75,157 76,158 77,158 78,159 79,159 80,160 81,160 82,161 84,161 85,162 87,162 88,163 91,163 92,164 95,164 96,165 100,165 101,166 105,166 106,167 110,167 111,168 115,168 116,169 120,169 121,170 126,170 127,171 132,171 133,172 138,172 139,173 144,173 145,174 150,174 151,175 155,175 156,176 161,176 162,177 167,177 168,178 173,178 174,179 178,179 179,180 184,180 185,181 189,181 190,182 195,182 196,183 200,183 201,184 206,184 207,185 211,185 210,184 210,180 209,179 209,176 208,175 208,171 207,170 207,166 206,165 206,161 205,160 205,156 204,155 204,150 203,149 203,148 202,148 201,147 197,147 196,146 192,146 191,145 188,145 187,144 182,144 181,143 177,143 176,142 172,142 171,141 167,141 166,140 162,140 161,139 157,139 156,138 152,138 151,137 148,137 147,136 143,136 142,135 138,135 137,134 134,134 133,133 129,133 128,132 125,132 124,131 121,131 120,130 116,130 115,129 112,129 111,128 107,128 106,127 103,127 102,126 98,126 97,125 93,125 92,124 88,124 87,123 83,123 82,122 78,122 77,121 74,121 73,120 69,120 68,119 64,119 63,118 59,118 58,117 55,117 54,116 51,116 50,115 46,115 45,114" fill="none" stroke="black" stroke-width="1"/>
<polygon points="0,37 0,38 1,39 1,43 2,44 2,47 3,48 3,50 4,51 4,53 5,54 5,56 6,57 6,59 7,60 7,61 8,62 8,63 9,64 9,65 10,66 10,67 11,68 11,69 13,71 13,72 16,75 16,76 19,79 19,80 21,82 22,82 26,86 27,86 30,89 31,89 32,90 33,90 35,92 36,92 37,93 38,93 39,94 41,94 42,95 43,95 44,96 46,96 47,97 49,97 50,98 52,98 53,99 56,99 57,100 60,100 61,101 64,101 65,102 68,102 69,103 72,103 73,104 76,104 77,105 80,105 81,106 85,106 86,107 89,107 90,108 94,108 95,109 99,109 100,110 103,110 104,111 108,111 109,112 113,112 114,113 118,113 119,114 123,114 124,115 127,115 128,116 132,116 133,117 136,117 137,118 141,118 142,119 145,119 146,120 150,120 151,121 154,121 155,122 158,122 159,123 163,123 164,124 167,124 168,125 172,125 173,126 177,126 178,127 181,127 182,128 186,128 187,129 190,129 191,130 195,130 196,131 199,131 200,132 201,132 201,129 200,128 200,123 199,122 199,115 198,114 198,107 197,106 197,98 196,97 196,93 194,93 193,92 189,92 188,91 185,91 184,90 182,90 181,89 178,89 177,88 174,88 173,87 170,87 169,86 166,86 165,85 163,85 162,84 159,84 158,83 156,83 155,82 152,82 151,81 149,81 148,80 145,80 144,79 142,79 141,78 138,78 137,77 135,77 134,76 131,76 130,75 127,75 126,74 124,74 123,73 120,73 119,72 117,72 116,71 113,71 112,70 110,70 109,69 106,69 105,68 103,68 102,67 99,67 98,66 95,66 94,65 91,65 90,64 88,64 87,63 84,63 83,62 80,62 79,61 77,61 76,60 73,60 72,59 69,59 68,58 65,58 64,57 62,57 61,56 58,56 57,55 55,55 54,54 52,54 51,53 48,53 47,52 45,52 44,51 42,51 41,50 39,50 38,49 35,49 34,48 33,48 32,47 30,47 29,46 27,46 26,45 24,45 23,44 21,44 20,43 19,43 18,42 16,42 15,41 13,41 12,40 10,40 9,39 8,39 7,38 4,38 3,37" fill="none" stroke="black" stroke-width="1"/>
<polygon points="825,36 824,37 823,37 822,38 820,38 819,39 817,39 816,40 814,40 813,41 811,41 810,42 808,42 807,43 805,43 804,44 802,44 801,45 800,45 799,46 797,46 796,47 794,47 793,48 791,48 790,49 788,49 787,50 785,50 784,51 782,51 781,52 779,52 778,53 775,53 774,54 772,54 771,55 769,55 768,56 765,56 764,57 762,57 761,58 758,58 757,59 754,59 753,60 750,60 749,61 746,61 745,62 742,62 741,63 738,63 737,64 735,64 734,65 731,65 730,66 728,66 727,67 724,67 723,68 721,68 720,69 717,69 716,70 714,70 713,71 710,71 709,72 707,72 706,73 703,73 702,74 700,74 699,75 696,75 695,76 692,76 691,77 689,77 688,78 685,78 684,79 682,79 681,80 678,80 677,81 674,81 673,82 670,82 669,83 666,83 665,84 663,84 662,85 659,85 658,86 655,86 654,87 651,87 650,88 648,88 647,89 644,89 643,90 640,90 639,91 636,91 635,92 632,92 631,93 631,99 630,100 630,108 629,109 629,116 628,117 628,124 627,125 627,132 628,131 632,131 633,130 636,130 637,129 640,129 641,128 645,128 646,127 650,127 651,126 655,126 656,125 659,125 660,124 663,124 664,123 668,123 669,122 672,122 673,121 676,121 677,120 680,120 681,119 685,119 686,118 689,118 690,117 693,117 694,116 698,116 699,115 702,115 703,114 707,114 708,113 712,113 713,112 717,112 718,111 721,111 722,110 726,110 727,109 731,109 732,108 736,108 737,107 741,107 742,106 745,106 746,105 750,105 751,104 754,104 755,103 758,103 759,102 762,102 763,101 766,101 767,100 770,100 771,99 774,99 775,98 777,98 778,97 780,97 781,96 783,96 784,95 785,95 786,94 788,94 789,93 790,93 792,91 793,91 794,90 795,90 798,87 799,87 811,75 811,74 814,71 814,70 816,68 816,67 817,66 817,65 818,64 818,63 819,62 819,61 820,60 820,58 821,57 821,55 822,54 822,52 823,51 823,48 824,47 824,44 825,43 825,39 826,38 826,36" fill="none" stroke="black" stroke-width="1"/>
<polygon points="414,0 413,1 412,1 410,3 409,3 408,4 407,4 405,6 404,6 403,7 402,7 400,9 399,9 398,10 397,10 396,11 395,11 393,13 392,13 391,14 390,14 389,15 388,15 387,16 386,16 385,17 384,17 383,18 382,18 381,19 380,19 379,20 378,20 377,21 376,21 375,22 373,22 372,23 371,23 370,24 369,24 368,25 367,25 366,26 365,26 364,27 362,27 361,28 360,28 359,29 357,29 356,30 355,30 354,31 352,31 351,32 350,32 349,33 347,33 346,34 344,34 343,35 341,35 340,36 338,36 337,37 335,37 334,38 331,38 330,39 328,39 327,40 324,40 323,41 321,41 320,42 317,42 316,43 313,43 312,44 309,44 308,45 304,45 303,46 300,46 299,47 295,47 294,48 289,48 288,49 283,49 282,50 277,50 276,51 271,51 270,52 265,52 264,53 257,53 256,54 246,54 245,55 228,55 227,56 211,56 211,66 212,67 212,77 213,78 213,89 214,90 214,99 215,100 215,107 216,108 216,115 217,116 217,123 218,124 218,130 219,131 219,136 220,137 220,143 221,144 221,148 222,149 222,154 223,155 223,159 224,160 224,164 225,165 225,169 226,170 226,173 227,174 227,178 228,179 228,182 229,183 229,186 230,187 230,190 231,191 231,194 232,195 232,197 233,198 233,201 234,202 234,204 235,205 235,207 236,208 236,211 237,212 237,213 238,214 238,217 239,218 239,219 240,220 240,222 241,223 241,225 242,226 242,227 243,228 243,230 244,231 244,232 245,233 245,235 246,236 246,237 247,238 247,239 248,240 248,241 249,242 249,243 250,244 250,246 252,248 252,249 253,250 253,251 254,252 254,253 255,254 255,255 257,257 257,258 258,259 258,260 260,262 260,263 262,265 262,266 265,269 265,270 267,272 267,273 272,278 272,279 292,299 293,299 297,303 298,303 302,307 303,307 305,309 306,309 309,312 310,312 312,314 313,314 315,316 316,316 319,319 320,319 322,321 323,321 325,323 326,323 328,325 329,325 331,327 332,327 333,328 334,328 336,330 337,330 338,331 339,331 340,332 341,332 343,334 344,334 345,335 346,335 347,336 348,336 349,337 350,337 352,339 353,339 354,340 355,340 356,341 357,341 358,342 359,342 361,344 362,344 363,345 364,345 365,346 366,346 367,347 368,347 369,348 370,348 371,349 373,349 374,350 375,350 376,351 377,351 378,352 379,352 380,353 381,353 382,354 383,354 384,355 386,355 387,356 388,356 389,357 390,357 391,358 393,358 394,359 395,359 396,360 398,360 399,361 401,361 402,362 403,362 404,363 406,363 407,364 409,364 410,365 411,365 412,366 415,366 416,365 418,365 419,364 420,364 421,363 423,363 424,362 425,362 426,361 428,361 429,360 431,360 432,359 433,359 434,358 435,358 436,357 438,357 439,356 440,356 441,355 443,355 444,354 445,354 446,353 447,353 448,352 449,352 450,351 452,351 453,350 454,350 455,349 456,349 457,348 458,348 459,347 460,347 461,346 462,346 463,345 464,345 465,344 466,344 467,343 468,343 469,342 470,342 471,341 472,341 473,340 474,340 476,338 477,338 478,337 479,337 480,336 481,336 482,335 483,335 485,333 486,333 487,332 488,332 489,331 490,331 492,329 493,329 494,328 495,328 497,326 498,326 500,324 501,324 503,322 504,322 505,321 506,321 509,318 510,318 512,316 513,316 515,314 516,314 519,311 520,311 522,309 523,309 526,306 527,306 531,302 532,302 538,296 539,296 552,283 552,282 558,276 558,275 562,271 562,270 565,267 565,266 566,265 566,264 568,262 568,261 570,259 570,258 572,256 572,255 573,254 573,253 574,252 574,251 575,250 575,249 577,247 577,246 578,245 578,244 579,243 579,241 580,240 580,239 581,238 581,237 582,236 582,235 583,234 583,233 584,232 584,230 585,229 585,228 586,227 586,225 587,224 587,223 588,222 588,220 589,219 589,217 590,216 590,214 591,213 591,211 592,210 592,208 593,207 593,204 594,203 594,200 595,199 595,197 596,196 596,193 597,192 597,189 598,188 598,184 599,183 599,180 600,179 600,175 601,174 601,170 602,169 602,165 603,164 603,160 604,159 604,154 605,153 605,148 606,147 606,141 607,140 607,135 608,134 608,128 609,127 609,121 610,120 610,113 611,112 611,105 612,104 612,97 613,96 613,87 614,86 614,77 615,76 615,65 616,64 616,56 601,56 600,55 586,55 585,54 574,54 573,53 565,53 564,52 559,52 558,51 552,51 551,50 546,50 545,49 541,49 540,48 536,48 535,47 531,47 530,46 526,46 525,45 521,45 520,44 517,44 516,43 514,43 513,42 510,42 509,41 506,41 505,40 502,40 501,39 499,39 498,38 496,38 495,37 492,37 491,36 489,36 488,35 486,35 485,34 483,34 482,33 480,33 479,32 477,32 476,31 475,31 474,30 472,30 471,29 470,29 469,28 467,28 466,27 465,27 464,26 463,26 462,25 460,25 459,24 458,24 457,23 456,23 455,22 454,22 453,21 452,21 451,20 450,20 449,19 448,19 447,18 446,18 445,17 444,17 443,16 442,16 441,15 440,15 439,14 438,14 437,13 436,13 435,12 434,12 433,11 432,11 430,9 429,9 428,8 427,8 425,6 424,6 423,5 422,5 420,3 419,3 418,2 417,2 416,1 415,1" fill="none" stroke="black" stroke-width="1"/>

</svg>